<svg width="44" height="30" viewBox="0 0 44 30" fill="none" xmlns="http://www.w3.org/2000/svg">
<path d="M19.2113 11.6327C19.2113 14.8163 18.7155 17.551 17.7239 19.8367C16.7324 22.2041 15.4516 24.1225 13.8817 25.5918C12.3117 27.1429 10.4939 28.2449 8.42817 28.898C6.44507 29.6327 4.46197 30 2.47887 30V25.7143C4.62723 25.7143 6.61033 24.9796 8.42817 23.5102C10.3286 22.1224 11.4441 20.2041 11.7746 17.7551C11.5268 17.9184 11.2376 18.0408 10.907 18.1224C10.246 18.2857 9.50235 18.3673 8.67606 18.3673C6.19718 18.3673 4.13146 17.4694 2.47887 15.6735C0.826291 13.7959 0 11.6327 0 9.18367C0 6.73469 0.826291 4.61224 2.47887 2.81633C4.21408 0.938775 6.48638 0 9.29577 0C12.4357 0 14.8732 1.18367 16.6085 3.55102C18.3437 5.83673 19.2113 8.53061 19.2113 11.6327ZM44 11.6327C44 14.8163 43.5042 17.551 42.5127 19.8367C41.5211 22.2041 40.2404 24.1225 38.6704 25.5918C37.1005 27.1429 35.2826 28.2449 33.2169 28.898C31.2338 29.6327 29.2507 30 27.2676 30V25.7143C29.416 25.7143 31.3991 24.9796 33.2169 23.5102C35.1174 22.1224 36.2329 20.2041 36.5634 17.7551C36.3155 17.9184 36.0263 18.0408 35.6958 18.1224C35.0347 18.2857 34.2911 18.3673 33.4648 18.3673C30.9859 18.3673 28.9202 17.4694 27.2676 15.6735C25.615 13.7959 24.7887 11.6327 24.7887 9.18367C24.7887 6.73469 25.615 4.61224 27.2676 2.81633C29.0028 0.938775 31.2751 0 34.0845 0C37.2244 0 39.662 1.18367 41.3972 3.55102C43.1324 5.83673 44 8.53061 44 11.6327Z" fill="#AEB5D1"/>
</svg>
