<svg width="31" height="33" viewBox="0 0 31 33" fill="none" xmlns="http://www.w3.org/2000/svg">
<path d="M29.9624 17.8409L30.9599 17.9124C30.982 17.604 30.8601 17.3026 30.6299 17.0962C30.3996 16.8898 30.0867 16.8016 29.7825 16.8572L29.9624 17.8409ZM18.0452 2.51171L18.9534 2.93026C19.0832 2.64874 19.075 2.32298 18.9314 2.04829C18.7877 1.77361 18.5248 1.58108 18.2196 1.52703L18.0452 2.51171ZM29.7825 16.8572C29.1995 16.9639 28.5979 17.0197 27.9825 17.0197V19.0197C28.7192 19.0197 29.4411 18.9528 30.1423 18.8246L29.7825 16.8572ZM27.9825 17.0197C22.495 17.0197 18.0466 12.5712 18.0466 7.08377H16.0466C16.0466 13.6758 21.3905 19.0197 27.9825 19.0197V17.0197ZM18.0466 7.08377C18.0466 5.59896 18.3716 4.19281 18.9534 2.93026L17.1371 2.09317C16.4367 3.61287 16.0466 5.30413 16.0466 7.08377H18.0466ZM15.5 3.28906C16.3096 3.28906 17.1018 3.36022 17.8709 3.4964L18.2196 1.52703C17.3359 1.37057 16.4271 1.28906 15.5 1.28906V3.28906ZM2 16.7891C2 9.33322 8.04416 3.28906 15.5 3.28906V1.28906C6.93959 1.28906 0 8.22865 0 16.7891H2ZM15.5 30.2891C8.04416 30.2891 2 24.2449 2 16.7891H0C0 25.3495 6.93959 32.2891 15.5 32.2891V30.2891ZM28.965 17.7694C28.4633 24.7671 22.6261 30.2891 15.5 30.2891V32.2891C23.6827 32.2891 30.3838 25.9489 30.9599 17.9124L28.965 17.7694Z" fill="#4563FF"/>
</svg>
