<svg width="250" height="250" viewBox="0 0 250 250" fill="none" xmlns="http://www.w3.org/2000/svg">
<g clip-path="url(#clip0)">
<path d="M241.602 48.8281H76.5625C71.0938 48.8281 66.7969 53.125 66.7969 58.5937V61.5234H223.242C231.836 61.5234 238.867 68.5547 238.867 77.1484V159.766H241.797C247.266 159.766 251.562 155.469 251.562 150V58.5937C251.367 53.125 246.875 48.8281 241.602 48.8281Z" fill="#4563FF"/>
<path d="M223.047 180.078H58.0078C51.5625 180.078 46.2891 174.805 46.2891 168.359V76.9531C46.2891 70.5078 51.5625 65.2344 58.0078 65.2344H223.047C229.492 65.2344 234.766 70.5078 234.766 76.9531V168.164C234.766 174.805 229.492 180.078 223.047 180.078ZM58.0078 69.1406C53.7109 69.1406 50.1953 72.6562 50.1953 76.9531V168.164C50.1953 172.461 53.7109 175.977 58.0078 175.977H223.047C227.344 175.977 230.859 172.461 230.859 168.164V76.9531C230.859 72.6562 227.344 69.1406 223.047 69.1406H58.0078Z" fill="#4563FF"/>
<path d="M163.477 89.8438C168.945 89.8438 173.242 94.1406 173.242 99.6094C173.242 105.078 168.945 109.375 163.477 109.375C158.008 109.375 153.711 105.078 153.711 99.6094C153.711 94.1406 158.203 89.8438 163.477 89.8438ZM163.477 85.9375C155.859 85.9375 149.805 91.9922 149.805 99.6094C149.805 107.227 155.859 113.281 163.477 113.281C171.094 113.281 177.148 107.227 177.148 99.6094C177.148 91.9922 171.094 85.9375 163.477 85.9375Z" fill="#4563FF"/>
<path d="M200.586 113.281C208.137 113.281 214.258 107.16 214.258 99.6094C214.258 92.0586 208.137 85.9375 200.586 85.9375C193.035 85.9375 186.914 92.0586 186.914 99.6094C186.914 107.16 193.035 113.281 200.586 113.281Z" fill="#FF0029"/>
<path d="M56.0547 214.648C45.1172 214.648 34.7656 210.352 27.1485 202.539C26.3672 201.758 26.3672 200.586 27.1485 199.805C27.9297 199.023 29.1015 199.023 29.8828 199.805C36.914 206.836 46.2891 210.742 56.0547 210.742C76.5625 210.742 93.1641 194.141 93.1641 173.633C93.1641 153.125 76.5625 136.523 56.0547 136.523C35.5469 136.523 18.9453 153.125 18.9453 173.633V179.492C18.9453 180.664 18.1641 181.445 16.9922 181.445C15.8203 181.445 15.0391 180.664 15.0391 179.492V173.633C15.0391 150.977 33.3984 132.617 56.0547 132.617C78.7109 132.617 97.0703 150.977 97.0703 173.633C97.0703 196.289 78.5156 214.648 56.0547 214.648Z" fill="#4563FF"/>
<path d="M16.9922 184.18L5.90459e-08 167.187C-0.78125 166.406 -0.78125 165.234 5.90459e-08 164.453C0.78125 163.672 1.95311 163.672 2.73436 164.453L16.9922 178.711L31.25 164.453C32.0313 163.672 33.2032 163.672 33.9844 164.453C34.7657 165.234 34.7657 166.406 33.9844 167.187L16.9922 184.18Z" fill="#4563FF"/>
</g>
<defs>
<clipPath id="clip0">
<rect width="250" height="250" fill="white"/>
</clipPath>
</defs>
</svg>
