<svg width="24" height="24" viewBox="0 0 24 24" fill="none" xmlns="http://www.w3.org/2000/svg">
<path fill-rule="evenodd" clip-rule="evenodd" d="M3.17157 3.17157C2.42143 3.92172 2 4.93913 2 6V18C2 19.0609 2.42143 20.0783 3.17157 20.8284C3.92172 21.5786 4.93913 22 6 22H18C19.0609 22 20.0783 21.5786 20.8284 20.8284C21.5786 20.0783 22 19.0609 22 18V6C22 4.93913 21.5786 3.92172 20.8284 3.17157C20.0783 2.42143 19.0609 2 18 2H6C4.93913 2 3.92172 2.42143 3.17157 3.17157ZM4.58579 4.58579C4.96086 4.21071 5.46957 4 6 4H18C18.5304 4 19.0391 4.21071 19.4142 4.58579C19.7893 4.96086 20 5.46957 20 6V18C20 18.5304 19.7893 19.0391 19.4142 19.4142C19.0391 19.7893 18.5304 20 18 20H6C5.46957 20 4.96086 19.7893 4.58579 19.4142C4.21071 19.0391 4 18.5304 4 18V6C4 5.46957 4.21071 4.96086 4.58579 4.58579Z" fill="white" fill-opacity="0.5"/>
<path fill-rule="evenodd" clip-rule="evenodd" d="M7.94745 9.67958L7.94748 9.67966L7.94865 9.68308L7.95489 9.70105C7.96074 9.71781 7.96996 9.74393 7.98243 9.77843C8.0074 9.84748 8.04529 9.94985 8.09521 10.0778C8.19533 10.3343 8.34241 10.6902 8.52909 11.0845C8.91473 11.899 9.42241 12.7757 9.97498 13.3203C10.3573 13.6971 10.716 13.8671 11.0003 13.9425V10.0003C11.0003 9.44799 11.448 9.00027 12.0003 9.00027C12.5526 9.00027 13.0003 9.44799 13.0003 10.0003V12.4366L13.3097 12.1412L16.3097 9.27698C16.7092 8.8956 17.3422 8.91027 17.7236 9.30973C18.1049 9.70919 18.0903 10.3422 17.6908 10.7236L15.5663 12.7519L17.5802 14.1856C18.0302 14.5059 18.1352 15.1303 17.8149 15.5802C17.4946 16.0302 16.8702 16.1352 16.4203 15.8149L13.4203 13.6791L13.0003 13.3801V14.9286C13.0003 15.3606 12.7228 15.7438 12.3124 15.8786L12.0003 14.9286C12.3124 15.8786 12.3119 15.8788 12.3113 15.879L12.3101 15.8794L12.3077 15.8801L12.3025 15.8818L12.2904 15.8856C12.2816 15.8883 12.2714 15.8914 12.2597 15.8947C12.2365 15.9014 12.2075 15.9091 12.1733 15.9174C12.1048 15.9339 12.0145 15.9524 11.9053 15.9678C11.6875 15.9985 11.3901 16.0171 11.0391 15.9786C10.3218 15.9001 9.42553 15.587 8.57102 14.7447C7.75995 13.9453 7.13127 12.8059 6.72145 11.9403C6.5104 11.4945 6.34499 11.0943 6.23204 10.8048C6.17542 10.6597 6.13164 10.5416 6.10156 10.4584C6.08651 10.4167 6.07487 10.3838 6.06674 10.3605L6.05719 10.333L6.05441 10.3249L6.05352 10.3222L6.05321 10.3213L6.05308 10.3209C6.05303 10.3208 6.05298 10.3206 7.00027 10.0003L6.05298 10.3206C5.87605 9.79745 6.15674 9.2299 6.67991 9.05298C7.20289 8.87611 7.7702 9.15652 7.94736 9.6793L7.94741 9.67945L7.94745 9.67958Z" fill="white" fill-opacity="0.5"/>
</svg>
