<svg width="24" height="24" viewBox="0 0 24 24" fill="none" xmlns="http://www.w3.org/2000/svg">
<circle cx="12" cy="12" r="10" stroke="white" stroke-opacity="0.5" stroke-width="2"/>
<path fill-rule="evenodd" clip-rule="evenodd" d="M11.9924 12.1924C10.2233 12.1924 8.78456 10.8037 8.78456 9.09664C8.78456 7.38899 10.2233 6 11.9924 6C13.7618 6 15.2002 7.38899 15.2002 9.09664C15.2002 10.8037 13.7618 12.1924 11.9924 12.1924ZM11.9918 7.8137C12.7242 7.8137 13.32 8.3886 13.32 9.0956C13.32 9.80204 12.7242 10.3773 11.9918 10.3773C11.26 10.3773 10.6636 9.80204 10.6636 9.0956C10.6636 8.3886 11.26 7.8137 11.9918 7.8137ZM15.1715 16.4954L13.3322 14.8133C14.0019 14.6738 14.6478 14.4315 15.2427 14.0899C15.693 13.8303 15.8286 13.2861 15.5449 12.8744C15.2614 12.4618 14.6667 12.3376 14.2157 12.5972C12.868 13.3721 11.1328 13.372 9.78582 12.5972C9.33481 12.3376 8.73988 12.4618 8.45698 12.8744C8.1733 13.2864 8.30854 13.8303 8.75878 14.0899C9.3537 14.4312 9.99962 14.6738 10.6694 14.8133L8.82984 16.4954C8.45383 16.8396 8.45383 17.3977 8.83024 17.7419C9.01864 17.9138 9.26511 17.9998 9.51159 17.9998C9.75846 17.9998 10.0053 17.9138 10.1937 17.7419L12.0006 16.0889L13.809 17.7419C14.185 18.086 14.7951 18.086 15.1715 17.7419C15.5483 17.3977 15.5483 16.8393 15.1715 16.4954Z" fill="white" fill-opacity="0.5"/>
</svg>
