<svg width="26" height="26" viewBox="0 0 26 26" fill="none" xmlns="http://www.w3.org/2000/svg">
<path d="M11.798 13.108H9.49622C9.47273 13.108 9.46099 13.12 9.44925 13.144C9.39053 14.2117 9.19089 15.3514 8.90904 16.2872C8.90904 16.2992 8.90904 16.3112 8.92079 16.3232C8.93253 16.3352 8.94427 16.3352 8.95602 16.3352H9.74284C9.76632 16.3352 9.77807 16.3232 9.77807 16.3112C10.0012 15.5914 10.1773 14.6556 10.2478 13.8638H10.9994V16.2992C10.9994 16.3232 11.0229 16.3472 11.0464 16.3472H11.798C11.8214 16.3472 11.8449 16.3232 11.8449 16.2992V13.144C11.8449 13.12 11.8214 13.108 11.798 13.108ZM21.5334 13.108H20.7818C20.7583 13.108 20.7348 13.132 20.7348 13.156V15.5914C20.5704 15.6393 20.406 15.6633 20.2181 15.6633C19.7249 15.6633 19.6074 15.5074 19.6074 14.8355V13.156C19.6074 13.132 19.5839 13.108 19.5604 13.108H18.8206C18.7971 13.108 18.7736 13.132 18.7736 13.156V14.9195C18.7736 16.0233 19.1377 16.4431 20.0654 16.4431C20.5939 16.4431 21.1928 16.2992 21.5451 16.1672C21.5569 16.1552 21.5686 16.1432 21.5686 16.1312V13.156C21.5803 13.12 21.5569 13.108 21.5334 13.108ZM5.60911 13.108H4.84577C4.82229 13.108 4.81054 13.12 4.81054 13.144C4.69311 13.6238 4.44649 14.4396 4.11767 15.2914L3.35434 13.144C3.3426 13.132 3.33086 13.12 3.31911 13.12H2.54404C2.53229 13.12 2.52055 13.132 2.50881 13.144C2.49706 13.156 2.49706 13.168 2.50881 13.18L3.65968 16.3952C3.54224 16.6471 3.43655 16.851 3.33086 17.043C3.24865 17.187 3.17819 17.3309 3.10773 17.4749C3.09599 17.4869 3.09599 17.4989 3.10773 17.5109C3.11947 17.5229 3.13122 17.5349 3.14296 17.5349H3.97675C3.9885 17.5349 4.01198 17.5229 4.01198 17.5109C4.15291 17.235 4.32906 16.851 4.49347 16.4551C4.9867 15.2794 5.37423 14.1757 5.66782 13.168C5.66782 13.156 5.66782 13.144 5.65608 13.132C5.63259 13.108 5.62085 13.108 5.60911 13.108ZM8.34535 15.5914C8.34535 15.5794 8.33361 15.5674 8.32187 15.5674H8.28664C8.09874 15.6393 7.75818 15.6873 7.5233 15.6873C6.99484 15.6873 6.74823 15.5434 6.74823 14.7276C6.74823 14.0677 6.83044 13.7678 7.5233 13.7678C7.72295 13.7678 7.8991 13.7918 8.13397 13.8638C8.15746 13.8638 8.1692 13.8638 8.18094 13.8398C8.26315 13.6718 8.36884 13.4679 8.48628 13.2159V13.18C8.48628 13.168 8.47453 13.156 8.46279 13.156C8.15746 13.06 7.79341 13 7.46459 13C6.37244 13 5.87921 13.5279 5.87921 14.7156C5.87921 15.9153 6.37244 16.4551 7.46459 16.4551C7.73469 16.4551 8.28664 16.3952 8.54499 16.2872C8.56848 16.2752 8.58022 16.2512 8.56848 16.2272L8.34535 15.5914ZM15.4972 13.108H14.7338C14.7104 13.108 14.6986 13.12 14.6986 13.144C14.5812 13.6358 14.3346 14.4396 14.0057 15.2914L13.2424 13.144C13.2307 13.132 13.2189 13.12 13.2072 13.12H12.4321C12.4204 13.12 12.4086 13.132 12.3969 13.144C12.3851 13.156 12.3851 13.168 12.3969 13.18L13.5477 16.3952C13.4303 16.6471 13.3246 16.851 13.2189 17.043C13.1367 17.187 13.0663 17.3309 12.9958 17.4869C12.9841 17.4989 12.9841 17.5109 12.9958 17.5229C13.0075 17.5349 13.0193 17.5469 13.031 17.5469H13.8648C13.8766 17.5469 13.9001 17.5349 13.9001 17.5229C14.041 17.2469 14.2171 16.863 14.3815 16.4671C14.863 15.2914 15.2623 14.1877 15.5559 13.18C15.5559 13.168 15.5559 13.156 15.5442 13.144C15.5207 13.108 15.5089 13.108 15.4972 13.108ZM18.3156 13.108H16.0961C16.0726 13.108 16.0491 13.132 16.0491 13.156V16.3112C16.0491 16.3352 16.0726 16.3592 16.0961 16.3592H16.8477C16.8712 16.3592 16.8947 16.3352 16.8947 16.3112V13.8758H18.0573C18.069 13.8758 18.0925 13.8638 18.0925 13.8518C18.1865 13.6358 18.2687 13.4079 18.3626 13.18V13.144C18.3391 13.108 18.3274 13.108 18.3156 13.108Z" fill="white"/>
<path d="M6.50486 8.47628C5.42437 8.47628 5.00157 8.93939 5.00157 10.1087C5.00157 11.3012 5.42437 11.7643 6.50486 11.7643C7.5971 11.7643 8.0199 11.3012 8.0199 10.1087C8.0199 8.92781 7.5971 8.47628 6.50486 8.47628ZM6.50486 11.0813C6.01159 11.0813 5.85892 10.9539 5.85892 10.1203C5.85892 9.24041 6.02334 9.15936 6.50486 9.15936C6.99813 9.15936 7.16255 9.24041 7.16255 10.1203C7.16255 10.9539 7.00987 11.0813 6.50486 11.0813ZM11.0265 10.9539C11.0265 10.9423 11.0147 10.9308 11.003 10.9308H10.9678C10.7798 11.0002 10.4393 11.0465 10.2044 11.0465C9.67587 11.0465 9.42923 10.9076 9.42923 10.1203C9.42923 9.48354 9.51144 9.1941 10.2044 9.1941C10.404 9.1941 10.5802 9.21725 10.8151 9.28672C10.8386 9.28672 10.8503 9.28672 10.8621 9.26356C10.9443 9.10148 11.05 8.90465 11.1674 8.66152V8.62679C11.1674 8.61521 11.1557 8.60363 11.1439 8.60363C10.8386 8.51101 10.4745 8.45312 10.1456 8.45312C9.05341 8.45312 8.56014 8.96254 8.56014 10.1087C8.56014 11.2665 9.05341 11.7875 10.1456 11.7875C10.4158 11.7875 10.9678 11.7296 11.2261 11.6254C11.2496 11.6138 11.2614 11.5907 11.2496 11.5675L11.0265 10.9539ZM4.76668 8.55732H2.54698C2.52349 8.55732 2.5 8.58048 2.5 8.60363V11.6486C2.5 11.6717 2.52349 11.6949 2.54698 11.6949H3.29862C3.32211 11.6949 3.3456 11.6717 3.3456 11.6486V9.28672H4.49656C4.5083 9.28672 4.53179 9.27514 4.53179 9.26356C4.62575 9.05517 4.70796 8.83519 4.80191 8.61521V8.58048C4.79017 8.5689 4.77843 8.55732 4.76668 8.55732Z" fill="white"/>
<path d="M25.2027 15.9926V15.9468C25.2027 15.924 25.2027 15.8896 25.2146 15.8667C25.2503 15.4433 25.2741 14.9283 25.2979 14.3332V14.2875C25.3099 13.8869 25.3218 13.452 25.3218 13.0057C25.3218 12.5594 25.3099 12.1245 25.2979 11.724V11.6782C25.2741 11.0946 25.2503 10.5681 25.2146 10.1447C25.2146 10.1218 25.2146 10.0875 25.2027 10.0646V10.0188C25.2027 9.97304 25.1908 9.93871 25.1908 9.89293V9.84716C25.155 9.40084 25.1312 9.12618 25.1193 9.10329C25.1193 9.05752 25.1074 9.01174 25.1074 8.97741V8.94308C25.0955 8.86297 25.0836 8.7943 25.0597 8.71419C25.0597 8.70275 25.0597 8.6913 25.0478 8.67986C24.8454 7.75289 24.3094 6.73437 23.6424 5.96761C23.3804 5.67007 23.1065 5.40685 22.8206 5.20086C22.7968 5.17797 22.4633 4.94909 21.9393 4.59433C21.3319 4.19378 20.4624 3.63302 19.4739 3.08371C17.7112 2.08807 16.151 1.38998 15.9366 1.30987C15.9247 1.30987 15.9247 1.29843 15.9247 1.29843C15.4602 1.10388 14.9004 0.966553 14.293 0.909332C14.1739 0.897888 14.0548 0.886444 13.9357 0.886444C13.8166 0.875 13.7094 0.875 13.6022 0.875H13.4355C12.6256 0.897888 11.8753 1.03522 11.2798 1.29843C11.1964 1.33276 9.61236 2.03085 7.81393 3.04937L7.74247 3.08371C5.89641 4.12512 4.45529 5.15509 4.39574 5.20086C3.94316 5.5213 3.53821 5.93328 3.169 6.45971C3.08563 6.57415 3.08563 6.8717 3.44293 6.8717H4.36001C4.75304 6.8717 4.84832 6.64282 5.289 6.33383C5.77731 5.9905 6.74203 5.30386 8.50472 4.29678C9.7791 3.5758 10.9701 3.0036 11.5537 2.74038C11.5656 2.74038 11.5775 2.72894 11.5894 2.72894C11.5894 2.72894 11.6013 2.72894 11.6013 2.7175C11.6013 2.7175 11.6133 2.7175 11.6133 2.70605C11.6252 2.70605 11.6371 2.69461 11.6371 2.69461C11.649 2.69461 11.6609 2.68316 11.6728 2.68316C11.8157 2.6145 11.911 2.58017 11.911 2.58017C12.3159 2.40851 12.8876 2.29407 13.495 2.28262H13.7332C13.9119 2.28262 14.0906 2.29407 14.2573 2.31695C14.6265 2.36273 14.96 2.43139 15.2339 2.54584C15.2577 2.55728 15.2935 2.56872 15.3173 2.58017C15.3173 2.58017 15.3292 2.59161 15.3649 2.60306C15.6389 2.7175 17.1157 3.3927 18.7236 4.29678C19.6764 4.83465 20.522 5.37252 21.1056 5.76162C21.6177 6.10494 21.9274 6.32238 21.9393 6.33383C22.1656 6.49404 22.3919 6.72292 22.6063 6.97469C23.1422 7.63845 23.5829 8.54253 23.6544 9.24062C23.6544 9.25206 23.6901 9.52672 23.7258 9.99593C23.7258 10.0303 23.7258 10.0532 23.7377 10.0875V10.1561C23.7377 10.2019 23.7496 10.2363 23.7496 10.282V10.3278C23.7496 10.3507 23.7496 10.385 23.7615 10.4079C23.7615 10.4651 23.7735 10.5224 23.7735 10.5796C23.7735 10.6139 23.7735 10.6482 23.7854 10.6826V10.7055C23.7854 10.7512 23.7854 10.7856 23.7973 10.8313V10.9229C23.833 11.518 23.8568 12.2275 23.8568 12.9714C23.8568 13.7153 23.833 14.4248 23.7973 15.0199V15.1114C23.7973 15.1572 23.7973 15.1915 23.7854 15.2373V15.2602C23.7854 15.2945 23.7854 15.3289 23.7735 15.3632C23.7735 15.4204 23.7615 15.4776 23.7615 15.5349C23.7615 15.5692 23.7615 15.5921 23.7496 15.615V15.6607C23.7496 15.7065 23.7377 15.7409 23.7377 15.7866V15.8553C23.7377 15.8896 23.7377 15.924 23.7258 15.9468C23.6901 16.4161 23.6544 16.7022 23.6544 16.7022C23.5829 17.4002 23.1422 18.3043 22.6063 18.9681C22.3919 19.2313 22.1656 19.4487 21.9393 19.609C21.9274 19.609 21.6177 19.8378 21.1056 20.1812C20.522 20.5703 19.6645 21.1081 18.7236 21.646C17.1157 22.5615 15.627 23.2253 15.3649 23.3397L15.3173 23.3626C15.2935 23.3741 15.2577 23.3855 15.2339 23.3969C14.96 23.4999 14.6265 23.58 14.2573 23.6258C14.0906 23.6487 13.9119 23.6602 13.7332 23.6602H13.495C12.8876 23.6487 12.3159 23.5457 11.911 23.3626C11.911 23.3626 11.8276 23.3283 11.6728 23.2596C11.6609 23.2482 11.6371 23.2482 11.6252 23.2367C11.6133 23.2253 11.6013 23.2253 11.5894 23.2138C11.5775 23.2138 11.5775 23.2024 11.5656 23.2024C11.5537 23.2024 11.5418 23.191 11.5299 23.191C11.518 23.1795 11.5061 23.1795 11.4822 23.1681H11.4703C10.8629 22.9392 9.71955 22.3899 8.50472 21.7032C6.73012 20.7076 5.77731 20.0095 5.289 19.6662C4.84832 19.3572 4.75304 19.1283 4.36001 19.1283H3.44293C3.08563 19.1283 3.08563 19.4258 3.169 19.5403C3.53821 20.0667 3.94316 20.4787 4.39574 20.7991C4.45529 20.8449 5.90832 21.8749 7.74247 22.9163C7.83775 22.9735 7.93304 23.0307 8.04023 23.0765C9.74337 24.0149 11.2083 24.6558 11.2917 24.7016C11.8753 24.9533 12.6375 25.1021 13.4474 25.125H13.6141C13.7213 25.125 13.8285 25.125 13.9357 25.1136C14.0548 25.1136 14.1739 25.1021 14.293 25.0907C14.9004 25.0334 15.4721 24.8961 15.9247 24.7016C15.9247 24.7016 15.9366 24.7016 15.9366 24.6901C16.1391 24.5986 17.7112 23.9005 19.462 22.9163C20.4505 22.3555 21.32 21.8062 21.9274 21.4057C22.4514 21.0509 22.7849 20.822 22.8087 20.7991C23.0946 20.5931 23.3685 20.3299 23.6305 20.0324C24.2975 19.2656 24.8335 18.2471 25.0359 17.3201C25.0359 17.3087 25.0359 17.2973 25.0478 17.2858C25.0597 17.2057 25.0836 17.1256 25.0955 17.0569V17.0226C25.1074 16.9768 25.1074 16.931 25.1074 16.8967C25.1074 16.8738 25.1431 16.5992 25.1788 16.1528V16.1071C25.2027 16.0727 25.2027 16.0384 25.2027 15.9926Z" fill="white"/>
</svg>
