<svg width="320" height="210" viewBox="0 0 320 210" fill="none" xmlns="http://www.w3.org/2000/svg">
<path d="M306.895 0.994141H98.1012C91.1826 0.994141 85.7466 6.4082 85.7466 13.2988V16.9902H283.668C294.54 16.9902 303.435 25.8496 303.435 36.6777V140.775H307.142C314.06 140.775 319.497 135.361 319.497 128.471V13.2988C319.249 6.4082 313.566 0.994141 306.895 0.994141Z" fill="#4563FF"/>
<path d="M283.421 166.369H74.6273C66.4733 166.369 59.8018 159.725 59.8018 151.604V36.4316C59.8018 28.3105 66.4733 21.666 74.6273 21.666H283.421C291.575 21.666 298.247 28.3105 298.247 36.4316V151.357C298.247 159.725 291.575 166.369 283.421 166.369ZM74.6273 26.5879C69.1913 26.5879 64.7436 31.0176 64.7436 36.4316V151.357C64.7436 156.771 69.1913 161.201 74.6273 161.201H283.421C288.857 161.201 293.305 156.771 293.305 151.357V36.4316C293.305 31.0176 288.857 26.5879 283.421 26.5879H74.6273Z" fill="#4563FF"/>
<path d="M208.058 52.6738C214.976 52.6738 220.412 58.0879 220.412 64.9785C220.412 71.8691 214.976 77.2832 208.058 77.2832C201.139 77.2832 195.703 71.8691 195.703 64.9785C195.703 58.0879 201.386 52.6738 208.058 52.6738ZM208.058 47.752C198.421 47.752 190.761 55.3809 190.761 64.9785C190.761 74.5762 198.421 82.2051 208.058 82.2051C217.694 82.2051 225.354 74.5762 225.354 64.9785C225.354 55.3809 217.694 47.752 208.058 47.752Z" fill="#4563FF"/>
<path d="M255.005 82.2051C264.558 82.2051 272.302 74.4925 272.302 64.9785C272.302 55.4645 264.558 47.752 255.005 47.752C245.453 47.752 237.709 55.4645 237.709 64.9785C237.709 74.4925 245.453 82.2051 255.005 82.2051Z" fill="#FF0029"/>
<path d="M72.1566 209.928C58.3194 209.928 45.2235 204.514 35.5869 194.67C34.5985 193.686 34.5985 192.209 35.5869 191.225C36.5753 190.24 38.0577 190.24 39.0461 191.225C47.9415 200.084 59.802 205.006 72.1566 205.006C98.1014 205.006 119.104 184.088 119.104 158.248C119.104 132.408 98.1014 111.49 72.1566 111.49C46.2119 111.49 25.209 132.408 25.209 158.248V165.631C25.209 167.107 24.2206 168.092 22.738 168.092C21.2555 168.092 20.2671 167.107 20.2671 165.631V158.248C20.2671 129.701 43.4938 106.568 72.1566 106.568C100.819 106.568 124.046 129.701 124.046 158.248C124.046 186.795 100.572 209.928 72.1566 209.928Z" fill="#4563FF"/>
<path d="M22.7379 171.537L1.24079 150.127C0.252419 149.143 0.252419 147.666 1.24079 146.682C2.22916 145.697 3.71171 145.697 4.70008 146.682L22.7379 164.646L40.7757 146.682C41.764 145.697 43.2467 145.697 44.235 146.682C45.2234 147.666 45.2234 149.143 44.235 150.127L22.7379 171.537Z" fill="#4563FF"/>
</svg>
