<svg width="288" height="151" viewBox="0 0 288 151" fill="none" xmlns="http://www.w3.org/2000/svg">
<path d="M287.776 136.438C287.776 136.214 287.776 135.766 287.776 135.542C287.551 131.061 287.102 126.356 286.429 122.099C286.429 121.875 286.429 121.427 286.205 121.203C285.531 116.723 284.633 112.466 283.511 107.985C283.511 107.761 283.287 107.313 283.287 107.089C282.165 102.832 280.818 98.5757 279.247 94.543C279.247 94.319 279.022 94.0949 279.022 93.6469C277.451 89.6142 275.88 85.5816 273.86 81.549C273.635 81.3249 273.635 81.1009 273.411 80.6528C271.615 76.8442 269.371 73.0356 267.126 69.227C266.902 69.003 266.902 68.7789 266.677 68.3309C264.433 64.7463 261.964 61.1617 259.495 57.8012C259.271 57.5771 259.046 57.3531 258.822 56.905C256.353 53.5445 253.659 50.184 250.741 47.0475C250.517 46.8234 250.293 46.3754 249.844 46.1513C248.497 44.5831 247.15 43.2389 245.579 41.6706L245.355 41.4466C243.783 39.8783 242.437 38.5341 240.866 37.1899C240.641 36.9659 240.192 36.5178 239.968 36.2938C238.621 34.9496 237.05 33.8294 235.703 32.4852C235.479 32.2611 235.479 32.2611 235.254 32.0371C233.683 30.6929 232.112 29.5727 230.541 28.2285C230.092 28.0044 229.643 27.5564 229.194 27.3323C227.848 26.2122 226.276 25.316 224.93 24.1958C224.705 23.9718 224.481 23.7478 224.256 23.7478C222.685 22.6276 220.89 21.5074 219.318 20.6113C218.869 20.8353 218.421 20.6113 217.972 20.1632C217.523 19.9392 217.074 19.4911 216.401 19.2671C195.302 7.16914 170.613 0 144.352 0C120.111 0 97.2173 6.04896 77.2412 16.5786L79.4857 20.3872C98.7885 10.3056 121.009 4.48071 144.352 4.48071C169.715 4.48071 193.731 11.4258 214.156 23.2997L173.755 93.1988C165.001 88.046 155.126 85.1335 144.352 85.1335C135.598 85.1335 127.294 87.1498 119.887 90.5104L122.131 94.319C128.865 91.1825 136.496 89.6142 144.352 89.6142C154.452 89.6142 163.879 92.3027 171.735 97.2315C172.633 97.6795 173.306 98.3516 174.204 98.7997C174.428 98.7997 174.428 99.0237 174.653 99.0237C175.326 99.4718 176.224 100.144 176.897 100.592C177.122 100.816 177.571 101.04 177.795 101.264C178.244 101.712 178.693 102.16 179.366 102.384C179.591 102.608 180.04 102.832 180.264 103.28C180.713 103.728 181.386 104.177 181.835 104.849C182.284 105.297 182.508 105.521 182.957 105.969C183.406 106.417 183.855 106.865 184.304 107.537C184.529 107.985 184.977 108.209 185.202 108.657C185.202 108.881 185.426 108.881 185.426 109.105L251.415 88.4941L252.313 90.9585L152.881 125.684C150.412 123.892 147.494 122.772 144.352 122.772C136.496 122.772 130.212 129.044 130.212 136.886C130.212 144.727 136.496 151 144.352 151C151.759 151 157.595 145.399 158.492 138.454L194.18 122.996C194.18 123.22 194.404 123.22 194.404 123.444C194.629 124.116 194.853 124.564 195.078 125.236C195.302 125.684 195.302 126.132 195.527 126.58C195.751 127.028 195.751 127.7 195.976 128.148C196.2 128.596 196.2 129.044 196.424 129.493C196.649 130.165 196.649 130.837 196.873 131.285C197.098 131.957 197.098 132.629 197.322 133.301C197.547 133.973 197.547 134.645 197.547 135.318C197.547 135.766 197.771 136.214 197.771 136.886C197.771 137.558 197.996 138.006 197.996 138.678C197.996 139.126 197.996 139.798 198.22 140.246C198.22 140.918 198.22 141.59 198.22 142.263C198.22 142.711 198.22 142.935 198.22 143.383C198.22 143.607 198.22 143.831 198.22 144.055H288C288 143.831 288 143.607 288 143.383C288 141.142 288 138.678 287.776 136.438Z" fill="#4563FF"/>
<path d="M90.4745 143.393C90.4745 143.617 90.4745 143.841 90.4745 144.065H0.694336C0.694336 90.9687 29.424 44.1453 72.294 19.2773L117.184 97.0177C101.248 106.427 90.4745 123.678 90.4745 143.393Z" fill="#FF0029"/>
</svg>
