<svg width="561" height="295" viewBox="0 0 561 295" fill="none" xmlns="http://www.w3.org/2000/svg">
<path d="M559.808 266.053C559.808 265.616 559.808 264.743 559.808 264.306C559.37 255.568 558.495 246.394 557.182 238.094C557.182 237.657 557.182 236.783 556.744 236.346C555.431 227.609 553.68 219.308 551.492 210.571C551.492 210.134 551.054 209.26 551.054 208.823C548.866 200.523 546.24 192.222 543.176 184.359C543.176 183.922 542.738 183.485 542.738 182.611C539.674 174.748 536.611 166.884 532.672 159.02C532.234 158.583 532.234 158.147 531.796 157.273C528.295 149.846 523.918 142.419 519.541 134.992C519.104 134.556 519.104 134.119 518.666 133.245C514.289 126.255 509.475 119.265 504.66 112.712C504.223 112.275 503.785 111.838 503.347 110.965C498.533 104.412 493.281 97.8586 487.591 91.7425C487.153 91.3056 486.715 90.4319 485.84 89.995C483.214 86.9369 480.588 84.3157 477.524 81.2576L477.086 80.8207C474.023 77.7627 471.397 75.1415 468.333 72.5202C467.895 72.0834 467.02 71.2096 466.582 70.7728C463.956 68.1516 460.892 65.9672 458.266 63.346C457.829 62.9091 457.829 62.9091 457.391 62.4723C454.327 59.851 451.263 57.6667 448.2 55.0455C447.324 54.6086 446.449 53.7349 445.574 53.298C442.948 51.1137 439.884 49.3662 437.258 47.1818C436.82 46.745 436.382 46.3081 435.945 46.3081C432.881 44.1238 429.38 41.9394 426.316 40.1919C425.44 40.6288 424.565 40.1919 423.69 39.3182C422.814 38.8813 421.939 38.0076 420.626 37.5707C379.484 13.9798 331.34 0 280.131 0C232.862 0 188.219 11.7955 149.266 32.3283L153.642 39.7551C191.283 20.096 234.613 8.73738 280.131 8.73738C329.589 8.73738 376.421 22.2803 416.249 45.4344L337.467 181.737C320.398 171.689 301.14 166.01 280.131 166.01C263.062 166.01 246.868 169.942 232.424 176.495L236.801 183.922C249.932 177.806 264.813 174.748 280.131 174.748C299.827 174.748 318.209 179.99 333.528 189.601C335.279 190.475 336.592 191.785 338.343 192.659C338.78 192.659 338.78 193.096 339.218 193.096C340.531 193.97 342.282 195.28 343.595 196.154C344.032 196.591 344.908 197.028 345.345 197.465C346.221 198.338 347.096 199.212 348.409 199.649C348.847 200.086 349.722 200.523 350.16 201.397C351.035 202.27 352.348 203.144 353.224 204.455C354.099 205.328 354.537 205.765 355.412 206.639C356.287 207.513 357.163 208.386 358.038 209.697C358.476 210.571 359.351 211.008 359.789 211.881C359.789 212.318 360.226 212.318 360.226 212.755L488.904 172.563L490.654 177.369L296.763 245.083C291.949 241.589 286.259 239.404 280.131 239.404C264.813 239.404 252.558 251.636 252.558 266.927C252.558 282.217 264.813 294.45 280.131 294.45C294.575 294.45 305.954 283.528 307.705 269.985L377.296 239.841C377.296 240.278 377.734 240.278 377.734 240.715C378.171 242.025 378.609 242.899 379.047 244.21C379.484 245.083 379.484 245.957 379.922 246.831C380.36 247.705 380.36 249.015 380.797 249.889C381.235 250.763 381.235 251.636 381.673 252.51C382.11 253.821 382.11 255.131 382.548 256.005C382.986 257.316 382.986 258.626 383.423 259.937C383.861 261.248 383.861 262.558 383.861 263.869C383.861 264.743 384.299 265.616 384.299 266.927C384.299 268.237 384.736 269.111 384.736 270.422C384.736 271.296 384.736 272.606 385.174 273.48C385.174 274.791 385.174 276.101 385.174 277.412C385.174 278.285 385.174 278.722 385.174 279.596C385.174 280.033 385.174 280.47 385.174 280.907H560.245C560.245 280.47 560.245 280.033 560.245 279.596C560.245 275.227 560.245 270.422 559.808 266.053Z" fill="#4563FF"/>
<path d="M175.071 279.613C175.071 280.05 175.071 280.487 175.071 280.924H0C0 177.386 56.0228 86.0803 139.619 37.5879L227.155 189.181C196.08 207.53 175.071 241.169 175.071 279.613Z" fill="#FF0029"/>
</svg>
