<svg width="178" height="151" viewBox="0 0 178 151" fill="none" xmlns="http://www.w3.org/2000/svg">
<path d="M102.469 150.379C82.475 150.379 63.5524 142.524 49.6282 128.243C48.2 126.815 48.2 124.673 49.6282 123.245C51.0563 121.816 53.1984 121.816 54.6265 123.245C67.4796 136.098 84.6172 143.238 102.469 143.238C139.957 143.238 170.305 112.891 170.305 75.4023C170.305 37.9141 139.957 7.5664 102.469 7.5664C64.9805 7.5664 34.6328 37.9141 34.6328 75.4023V86.1133C34.6328 88.2555 33.2047 89.6836 31.0625 89.6836C28.9203 89.6836 27.4922 88.2555 27.4922 86.1133V75.4023C27.4922 33.9867 61.0531 0.425781 102.469 0.425781C143.884 0.425781 177.445 33.9867 177.445 75.4023C177.445 116.818 143.527 150.379 102.469 150.379Z" fill="#4563FF"/>
<path d="M31.0625 94.682L0.000781364 63.6203C-1.42734 62.1922 -1.42734 60.05 0.000781364 58.6219C1.42891 57.1937 3.57107 57.1937 4.9992 58.6219L31.0625 84.6851L57.1258 58.6219C58.5539 57.1937 60.6962 57.1937 62.1243 58.6219C63.5524 60.05 63.5524 62.1922 62.1243 63.6203L31.0625 94.682Z" fill="#4563FF"/>
</svg>
