<svg width="457" height="304" viewBox="0 0 457 304" fill="none" xmlns="http://www.w3.org/2000/svg">
<path d="M441.648 0.257812H139.957C129.96 0.257812 122.105 8.1125 122.105 18.1094V23.4648H408.087C423.797 23.4648 436.65 36.318 436.65 52.0273V203.052H442.005C452.002 203.052 459.857 195.197 459.857 185.2V18.1094C459.5 8.1125 451.288 0.257812 441.648 0.257812Z" fill="#4563FF"/>
<path d="M407.73 240.184H106.039C94.257 240.184 84.6172 230.545 84.6172 218.762V51.6719C84.6172 39.8898 94.257 30.25 106.039 30.25H407.73C419.512 30.25 429.152 39.8898 429.152 51.6719V218.405C429.152 230.544 419.512 240.184 407.73 240.184ZM106.039 37.3906C98.1844 37.3906 91.7578 43.8172 91.7578 51.6719V218.405C91.7578 226.26 98.1844 232.687 106.039 232.687H407.73C415.585 232.687 422.012 226.26 422.012 218.405V51.6719C422.012 43.8172 415.585 37.3906 407.73 37.3906H106.039Z" fill="#4563FF"/>
<path d="M298.836 75.2344C308.833 75.2344 316.688 83.0891 316.688 93.0859C316.688 103.083 308.833 110.938 298.836 110.938C288.839 110.938 280.984 103.083 280.984 93.0859C280.984 83.0891 289.196 75.2344 298.836 75.2344ZM298.836 68.0938C284.912 68.0938 273.844 79.1617 273.844 93.0859C273.844 107.01 284.912 118.078 298.836 118.078C312.76 118.078 323.828 107.01 323.828 93.0859C323.828 79.1617 312.76 68.0938 298.836 68.0938Z" fill="#4563FF"/>
<path d="M366.672 118.078C380.475 118.078 391.664 106.889 391.664 93.0859C391.664 79.2831 380.475 68.0938 366.672 68.0938C352.869 68.0938 341.68 79.2831 341.68 93.0859C341.68 106.889 352.869 118.078 366.672 118.078Z" fill="#FF0029"/>
<path d="M102.469 303.379C82.475 303.379 63.5524 295.524 49.6282 281.243C48.2 279.815 48.2 277.673 49.6282 276.245C51.0563 274.816 53.1984 274.816 54.6265 276.245C67.4796 289.098 84.6172 296.238 102.469 296.238C139.957 296.238 170.305 265.891 170.305 228.402C170.305 190.914 139.957 160.566 102.469 160.566C64.9805 160.566 34.6328 190.914 34.6328 228.402V239.113C34.6328 241.255 33.2047 242.684 31.0625 242.684C28.9203 242.684 27.4922 241.255 27.4922 239.113V228.402C27.4922 186.987 61.0531 153.426 102.469 153.426C143.884 153.426 177.445 186.987 177.445 228.402C177.445 269.818 143.527 303.379 102.469 303.379Z" fill="#4563FF"/>
<path d="M31.0625 247.682L0.000781364 216.62C-1.42734 215.192 -1.42734 213.05 0.000781364 211.622C1.42891 210.194 3.57107 210.194 4.9992 211.622L31.0625 237.685L57.1258 211.622C58.5539 210.194 60.6962 210.194 62.1243 211.622C63.5524 213.05 63.5524 215.192 62.1243 216.62L31.0625 247.682Z" fill="#4563FF"/>
</svg>
