<svg width="124" height="22" viewBox="0 0 124 22" fill="none" xmlns="http://www.w3.org/2000/svg">
<path d="M8 0.5H3.5C1.84315 0.5 0.5 1.84315 0.5 3.5V18.5C0.5 20.1569 1.84315 21.5 3.5 21.5H8" stroke="#9D9D9C"/>
<path d="M15 0H19C20.6569 0 22 1.34315 22 3V19C22 20.6569 20.6569 22 19 22H15V0Z" fill="#646363"/>
<rect x="8" width="7" height="22" fill="#9D9D9C"/>
<circle cx="18.5" cy="17.5" r="2.5" fill="white"/>
<circle cx="11.5" cy="17.5" r="2.5" fill="white"/>
<circle cx="4.5" cy="17.5" r="2" fill="white" stroke="#9D9D9C"/>
<path d="M55.983 0V21.9982H52.1676V12.3865H40.8154V22H37V0H40.8154V8.93498H52.1676V0H55.983Z" fill="black"/>
<path d="M71.311 8.65805C76.2716 8.65805 79.0697 11.1229 79.0697 15.3134C79.0697 19.504 76.2716 22 71.311 22H61.104V0H77.193V3.35795H64.9194V8.65805H71.311ZM70.6434 18.7319C74.0451 18.7319 75.2223 17.4371 75.2223 15.2199C75.2223 13.032 73.9831 11.7391 70.6434 11.7391H64.9194V18.7337H70.6434V18.7319Z" fill="black"/>
<path d="M82.8281 0H86.6435V8.99733H92.7812L97.1382 0H101.081L95.993 10.6919L101.367 22H97.424L92.7812 12.3553H86.6435V21.9982H82.8281V0Z" fill="black"/>
<path d="M108.451 0V17.1309H109.214L118.594 0H124V21.9982H120.374V4.86729H119.611L110.231 21.9982H104.825V0H108.451Z" fill="black"/>
</svg>
