<svg width="72" height="72" viewBox="0 0 72 72" fill="none" xmlns="http://www.w3.org/2000/svg">
<path d="M39.5 1L40.2442 0.33209C40.0546 0.12074 39.784 0 39.5 0V1ZM57 20.5H58C58 20.2534 57.9089 20.0156 57.7442 19.8321L57 20.5ZM52 70H6V72H52V70ZM2 66V6H0V66H2ZM6 2H39.5V0H6V2ZM38.7558 1.66791L56.2558 21.1679L57.7442 19.8321L40.2442 0.33209L38.7558 1.66791ZM56 20.5V66H58V20.5H56ZM6 70C3.79086 70 2 68.2091 2 66H0C0 69.3137 2.68629 72 6 72V70ZM52 72C55.3137 72 58 69.3137 58 66H56C56 68.2091 54.2091 70 52 70V72ZM2 6C2 3.79086 3.79086 2 6 2V0C2.68629 0 0 2.68629 0 6H2Z" fill="#7B7794"/>
<path d="M26.7508 37.75L22.0008 50.9H21.0008L17.9008 29H14.8008L18.3008 54H23.7508L28.5008 40.75H29.5008L34.2508 54H39.7008L43.2008 29H40.1008L37.0508 50.9H36.0508L31.4508 37.75H26.7508Z" fill="#7B7794"/>
<path d="M39 2V16C39 18.7614 41.2386 21 44 21H56" stroke="#7B7794" stroke-width="2"/>
</svg>
