<svg width="250" height="167" viewBox="0 0 250 167" fill="none" xmlns="http://www.w3.org/2000/svg">
<path d="M241.602 0.828125H76.5625C71.0938 0.828125 66.7969 5.125 66.7969 10.5937V13.5234H223.242C231.836 13.5234 238.867 20.5547 238.867 29.1484V111.766H241.797C247.266 111.766 251.562 107.469 251.562 102V10.5937C251.367 5.125 246.875 0.828125 241.602 0.828125Z" fill="#4563FF"/>
<path d="M223.047 132.078H58.0078C51.5625 132.078 46.2891 126.805 46.2891 120.359V28.9531C46.2891 22.5078 51.5625 17.2344 58.0078 17.2344H223.047C229.492 17.2344 234.766 22.5078 234.766 28.9531V120.164C234.766 126.805 229.492 132.078 223.047 132.078ZM58.0078 21.1406C53.7109 21.1406 50.1953 24.6562 50.1953 28.9531V120.164C50.1953 124.461 53.7109 127.977 58.0078 127.977H223.047C227.344 127.977 230.859 124.461 230.859 120.164V28.9531C230.859 24.6562 227.344 21.1406 223.047 21.1406H58.0078Z" fill="#4563FF"/>
<path d="M163.477 41.8438C168.945 41.8438 173.242 46.1406 173.242 51.6094C173.242 57.0781 168.945 61.375 163.477 61.375C158.008 61.375 153.711 57.0781 153.711 51.6094C153.711 46.1406 158.203 41.8438 163.477 41.8438ZM163.477 37.9375C155.859 37.9375 149.805 43.9922 149.805 51.6094C149.805 59.2266 155.859 65.2812 163.477 65.2812C171.094 65.2812 177.148 59.2266 177.148 51.6094C177.148 43.9922 171.094 37.9375 163.477 37.9375Z" fill="#4563FF"/>
<path d="M200.586 65.2812C208.137 65.2812 214.258 59.1601 214.258 51.6094C214.258 44.0586 208.137 37.9375 200.586 37.9375C193.035 37.9375 186.914 44.0586 186.914 51.6094C186.914 59.1601 193.035 65.2812 200.586 65.2812Z" fill="#FF0029"/>
<path d="M56.0547 166.648C45.1172 166.648 34.7656 162.352 27.1485 154.539C26.3672 153.758 26.3672 152.586 27.1485 151.805C27.9297 151.023 29.1015 151.023 29.8828 151.805C36.914 158.836 46.2891 162.742 56.0547 162.742C76.5625 162.742 93.1641 146.141 93.1641 125.633C93.1641 105.125 76.5625 88.5234 56.0547 88.5234C35.5469 88.5234 18.9453 105.125 18.9453 125.633V131.492C18.9453 132.664 18.1641 133.445 16.9922 133.445C15.8203 133.445 15.0391 132.664 15.0391 131.492V125.633C15.0391 102.977 33.3984 84.6172 56.0547 84.6172C78.7109 84.6172 97.0703 102.977 97.0703 125.633C97.0703 148.289 78.5156 166.648 56.0547 166.648Z" fill="#4563FF"/>
<path d="M16.9922 136.18L5.90459e-08 119.187C-0.78125 118.406 -0.78125 117.234 5.90459e-08 116.453C0.78125 115.672 1.95311 115.672 2.73436 116.453L16.9922 130.711L31.25 116.453C32.0313 115.672 33.2032 115.672 33.9844 116.453C34.7657 117.234 34.7657 118.406 33.9844 119.187L16.9922 136.18Z" fill="#4563FF"/>
</svg>
