<svg width="26" height="26" viewBox="0 0 26 26" fill="none" xmlns="http://www.w3.org/2000/svg">
<path d="M2.41253 0.0957356H18.6921C19.3429 0.0938842 19.9776 0.29734 20.5061 0.677148C21.0622 1.07968 21.4707 1.65367 21.6689 2.31092L24.9248 12.7473C25.0365 13.1244 25.059 13.5223 24.9907 13.9097C24.9224 14.297 24.7651 14.6632 24.5311 14.9794C24.2972 15.2956 23.9931 15.5531 23.6427 15.7318C23.2923 15.9105 22.9053 16.0054 22.512 16.009H14.3722L15.2269 19.7242C15.3795 20.3731 15.3817 21.0484 15.2333 21.6982C15.0849 22.3481 14.7899 22.9555 14.3708 23.4739C13.9517 23.9923 13.4197 24.408 12.8153 24.6892C12.2109 24.9705 11.5502 25.1098 10.8837 25.0965C10.7172 25.0971 10.5541 25.0497 10.4139 24.9599C10.2737 24.8702 10.1623 24.742 10.093 24.5907L6.13938 16.009H2.42416C2.1447 16.0121 1.86738 15.9601 1.60802 15.856C1.34867 15.7518 1.11237 15.5977 0.912605 15.4022C0.712841 15.2068 0.553532 14.9739 0.443775 14.7169C0.334019 14.4599 0.275965 14.1837 0.272928 13.9043V2.20045C0.279064 1.6381 0.507565 1.10104 0.908485 0.706655C1.30941 0.31227 1.85015 0.092629 2.41253 0.0957356ZM11.4128 23.3057C11.7683 23.2496 12.1083 23.12 12.411 22.9252C12.7137 22.7305 12.9726 22.4749 13.1711 22.1746C13.3696 21.8744 13.5035 21.5361 13.5641 21.1813C13.6248 20.8265 13.6109 20.4629 13.5233 20.1138L12.4186 15.3346C12.391 15.2064 12.3923 15.0738 12.4223 14.9462C12.4523 14.8186 12.5103 14.6993 12.5921 14.5968C12.6739 14.4944 12.7775 14.4115 12.8953 14.3541C13.0131 14.2966 13.1423 14.2661 13.2733 14.2648H22.512C22.6336 14.2646 22.7535 14.2359 22.862 14.1811C22.9706 14.1263 23.0648 14.0468 23.1371 13.9491C23.2094 13.8513 23.2579 13.738 23.2786 13.6181C23.2992 13.4983 23.2916 13.3753 23.2562 13.2589L22.7038 11.4682H18.1456C17.9143 11.4682 17.6924 11.3763 17.5289 11.2127C17.3653 11.0492 17.2734 10.8274 17.2734 10.5961C17.2734 10.3647 17.3653 10.1429 17.5289 9.97937C17.6924 9.81581 17.9143 9.72393 18.1456 9.72393H22.1689L21.0817 6.20057H18.1456C17.9143 6.20057 17.6924 6.10869 17.5289 5.94513C17.3653 5.78158 17.2734 5.55975 17.2734 5.32845C17.2734 5.09715 17.3653 4.87532 17.5289 4.71177C17.6924 4.54822 17.9143 4.45633 18.1456 4.45633H20.5468L20.0468 2.83419C19.957 2.54921 19.7792 2.30001 19.539 2.12242C19.2987 1.94482 19.0083 1.84797 18.7095 1.84579H7.52315V14.8752L11.4128 23.3057ZM2.00554 13.9043C2.0085 13.9547 2.02139 14.0041 2.04347 14.0495C2.06554 14.0949 2.09637 14.1355 2.13418 14.169C2.17199 14.2025 2.21605 14.2282 2.26381 14.2446C2.31158 14.2611 2.36211 14.2679 2.41253 14.2648H5.77891V1.83997H2.41253C2.36211 1.83683 2.31158 1.84366 2.26381 1.86009C2.21605 1.87652 2.17199 1.90221 2.13418 1.9357C2.09637 1.96919 2.06554 2.00982 2.04347 2.05525C2.02139 2.10068 2.0085 2.15003 2.00554 2.20045V13.9043Z" fill="#AEB5D1"/>
</svg>
