<svg width="144" height="34" viewBox="0 0 144 34" fill="none" xmlns="http://www.w3.org/2000/svg">
<path d="M126.044 12H127.484V8.244H129.8L131.552 12H133.04L131.012 7.596L132.932 3.432H131.444L129.8 6.936H127.484V3.432H126.044V12ZM135.035 3.432V12H137.075L140.615 5.328H140.903V12H142.271V3.432H140.231L136.691 10.104H136.403V3.432H135.035Z" fill="black"/>
<g clip-path="url(#clip0)">
<path d="M52.9571 12.0605V34.0002H49.1402V24.4141H37.7837V34.002H33.9668V12.0605H37.7837V20.9718H49.1402V12.0605H52.9571Z" fill="black"/>
<path d="M68.291 20.6956C73.2535 20.6956 76.0527 23.1538 76.0527 27.3332C76.0527 31.5127 73.2535 34.002 68.291 34.002H58.0801V12.0605H74.1753V15.4096H61.897V20.6956H68.291ZM67.6232 30.7426C71.0262 30.7426 72.2038 29.4513 72.2038 27.24C72.2038 25.0579 70.9642 23.7684 67.6232 23.7684H61.897V30.7445H67.6232V30.7426Z" fill="black"/>
<path d="M79.8125 12.0605H83.6294V21.0339H89.7695L94.1281 12.0605H98.0729L92.9825 22.724L98.3589 34.002H94.4141L89.7695 24.383H83.6294V34.0002H79.8125V12.0605Z" fill="black"/>
<path d="M105.445 12.0605V29.1459H106.209L115.592 12.0605H121.001V34.0002H117.374V16.9149H116.61L107.227 34.0002H101.818V12.0605H105.445Z" fill="black"/>
<path d="M4.13825 28.7844C4.96784 28.7844 5.64318 29.4319 5.64318 30.2293C5.64318 31.0268 4.96784 31.6743 4.13825 31.6743C3.30866 31.6743 2.63332 31.0268 2.63332 30.2293C2.63332 29.4337 3.30866 28.7844 4.13825 28.7844ZM4.13825 28.0527C2.89104 28.0527 1.88086 29.0276 1.88086 30.2293C1.88086 31.431 2.89104 32.4059 4.13825 32.4059C5.38546 32.4059 6.39565 31.431 6.39565 30.2293C6.39565 29.0276 5.38546 28.0527 4.13825 28.0527Z" fill="#4563FF"/>
<path d="M7.71289 33.9488H15.2375V12H7.71289V33.9488ZM11.4752 32.4855C10.228 32.4855 9.21782 31.5033 9.21782 30.2907C9.21782 29.078 10.228 28.0958 11.4752 28.0958C12.7224 28.0958 13.7326 29.078 13.7326 30.2907C13.7326 31.5033 12.7224 32.4855 11.4752 32.4855Z" fill="#4563FF"/>
<path d="M20.8798 12H15.2363V33.9488H20.8798C21.9182 33.9488 22.761 33.1294 22.761 32.1197V13.8291C22.761 12.8194 21.9182 12 20.8798 12ZM18.9986 32.4855C17.7514 32.4855 16.7413 31.5033 16.7413 30.2907C16.7413 29.078 17.7514 28.0958 18.9986 28.0958C20.2459 28.0958 21.256 29.078 21.256 30.2907C21.256 31.5033 20.2459 32.4855 18.9986 32.4855Z" fill="#FF0029"/>
<path d="M8.08899 12.7316V33.2172H1.88116C1.2585 33.2172 0.752464 32.7251 0.752464 32.1197V13.8291C0.752464 13.2236 1.2585 12.7316 1.88116 12.7316H8.08899ZM8.84145 12H1.88116C0.84276 12 0 12.8194 0 13.8291V32.1197C0 33.1294 0.84276 33.9488 1.88116 33.9488H8.84145V12Z" fill="#4563FF"/>
</g>
<defs>
<clipPath id="clip0">
<rect width="121" height="22" fill="white" transform="translate(0 12)"/>
</clipPath>
</defs>
</svg>
