<svg width="120" height="22" viewBox="0 0 120 22" fill="none" xmlns="http://www.w3.org/2000/svg">
<path d="M51.9561 0.0605469V22.0002H48.1393V12.4141H36.7827V22.002H32.9658V0.0605469H36.7827V8.97175H48.1393V0.0605469H51.9561Z" fill="black"/>
<path d="M67.29 8.69557C72.2526 8.69557 75.0517 11.1538 75.0517 15.3332C75.0517 19.5127 72.2526 22.002 67.29 22.002H57.0791V0.0605469H73.1743V3.40957H60.896V8.69557H67.29ZM66.6222 18.7426C70.0253 18.7426 71.2029 17.4513 71.2029 15.24C71.2029 13.0579 69.9632 11.7684 66.6222 11.7684H60.896V18.7445H66.6222V18.7426Z" fill="black"/>
<path d="M78.8115 0.0605469H82.6284V9.03394H88.7685L93.1272 0.0605469H97.072L91.9815 10.724L97.3579 22.002H93.4131L88.7685 12.383H82.6284V22.0002H78.8115V0.0605469Z" fill="black"/>
<path d="M104.444 0.0605469V17.1459H105.208L114.591 0.0605469H120V22.0002H116.373V4.91489H115.609L106.226 22.0002H100.817V0.0605469H104.444Z" fill="black"/>
<path d="M3.13825 16.7844C3.96784 16.7844 4.64318 17.4319 4.64318 18.2293C4.64318 19.0268 3.96784 19.6743 3.13825 19.6743C2.30866 19.6743 1.63332 19.0268 1.63332 18.2293C1.63332 17.4337 2.30866 16.7844 3.13825 16.7844ZM3.13825 16.0527C1.89104 16.0527 0.880859 17.0276 0.880859 18.2293C0.880859 19.431 1.89104 20.4059 3.13825 20.4059C4.38546 20.4059 5.39565 19.431 5.39565 18.2293C5.39565 17.0276 4.38546 16.0527 3.13825 16.0527Z" fill="#4563FF"/>
<path d="M6.71289 21.9488H14.2375V0H6.71289V21.9488ZM10.4752 20.4855C9.228 20.4855 8.21782 19.5033 8.21782 18.2907C8.21782 17.078 9.228 16.0958 10.4752 16.0958C11.7224 16.0958 12.7326 17.078 12.7326 18.2907C12.7326 19.5033 11.7224 20.4855 10.4752 20.4855Z" fill="#4563FF"/>
<path d="M19.8808 0H14.2373V21.9488H19.8808C20.9192 21.9488 21.7619 21.1294 21.7619 20.1197V1.82907C21.7619 0.819421 20.9192 0 19.8808 0ZM17.9996 20.4855C16.7524 20.4855 15.7422 19.5033 15.7422 18.2907C15.7422 17.078 16.7524 16.0958 17.9996 16.0958C19.2468 16.0958 20.257 17.078 20.257 18.2907C20.257 19.5033 19.2468 20.4855 17.9996 20.4855Z" fill="#FF0029"/>
</svg>
