<svg width="153" height="34" viewBox="0 0 153 34" fill="none" xmlns="http://www.w3.org/2000/svg">
<path d="M126.044 3.432V12H127.484V4.74H131.672V12H133.112V3.432H126.044ZM135.785 12H137.225V8.244H139.541L141.293 12H142.781L140.753 7.596L142.673 3.432H141.185L139.541 6.936H137.225V3.432H135.785V12ZM144.775 3.432V12H146.215V8.748H148.543C150.463 8.748 151.543 7.752 151.543 6.072C151.543 4.428 150.463 3.432 148.543 3.432H144.775ZM146.215 7.476V4.704H148.327C149.611 4.704 150.079 5.208 150.079 6.084C150.079 6.948 149.611 7.476 148.327 7.476H146.215Z" fill="black"/>
<g clip-path="url(#clip0)">
<path d="M52.9561 12.0605V34.0002H49.1393V24.4141H37.7827V34.002H33.9658V12.0605H37.7827V20.9718H49.1393V12.0605H52.9561Z" fill="black"/>
<path d="M68.29 20.6956C73.2526 20.6956 76.0517 23.1538 76.0517 27.3332C76.0517 31.5127 73.2526 34.002 68.29 34.002H58.0791V12.0605H74.1743V15.4096H61.896V20.6956H68.29ZM67.6222 30.7426C71.0253 30.7426 72.2029 29.4513 72.2029 27.24C72.2029 25.0579 70.9632 23.7684 67.6222 23.7684H61.896V30.7445H67.6222V30.7426Z" fill="black"/>
<path d="M79.8115 12.0605H83.6284V21.0339H89.7685L94.1272 12.0605H98.072L92.9815 22.724L98.3579 34.002H94.4131L89.7685 24.383H83.6284V34.0002H79.8115V12.0605Z" fill="black"/>
<path d="M105.444 12.0605V29.1459H106.208L115.591 12.0605H121V34.0002H117.373V16.9149H116.609L107.226 34.0002H101.817V12.0605H105.444Z" fill="black"/>
<path d="M4.13825 28.7844C4.96784 28.7844 5.64318 29.4319 5.64318 30.2293C5.64318 31.0268 4.96784 31.6743 4.13825 31.6743C3.30866 31.6743 2.63332 31.0268 2.63332 30.2293C2.63332 29.4337 3.30866 28.7844 4.13825 28.7844ZM4.13825 28.0527C2.89104 28.0527 1.88086 29.0276 1.88086 30.2293C1.88086 31.431 2.89104 32.4059 4.13825 32.4059C5.38546 32.4059 6.39565 31.431 6.39565 30.2293C6.39565 29.0276 5.38546 28.0527 4.13825 28.0527Z" fill="#4563FF"/>
<path d="M7.71289 33.9488H15.2375V12H7.71289V33.9488ZM11.4752 32.4855C10.228 32.4855 9.21782 31.5033 9.21782 30.2907C9.21782 29.078 10.228 28.0958 11.4752 28.0958C12.7224 28.0958 13.7326 29.078 13.7326 30.2907C13.7326 31.5033 12.7224 32.4855 11.4752 32.4855Z" fill="#4563FF"/>
<path d="M20.8808 12H15.2373V33.9488H20.8808C21.9192 33.9488 22.7619 33.1294 22.7619 32.1197V13.8291C22.7619 12.8194 21.9192 12 20.8808 12ZM18.9996 32.4855C17.7524 32.4855 16.7422 31.5033 16.7422 30.2907C16.7422 29.078 17.7524 28.0958 18.9996 28.0958C20.2468 28.0958 21.257 29.078 21.257 30.2907C21.257 31.5033 20.2468 32.4855 18.9996 32.4855Z" fill="#FF0029"/>
<path d="M8.08899 12.7316V33.2172H1.88116C1.2585 33.2172 0.752464 32.7251 0.752464 32.1197V13.8291C0.752464 13.2236 1.2585 12.7316 1.88116 12.7316H8.08899ZM8.84145 12H1.88116C0.84276 12 0 12.8194 0 13.8291V32.1197C0 33.1294 0.84276 33.9488 1.88116 33.9488H8.84145V12Z" fill="#4563FF"/>
</g>
<defs>
<clipPath id="clip0">
<rect width="121" height="22" fill="white" transform="translate(0 12)"/>
</clipPath>
</defs>
</svg>
