<svg width="188" height="30" viewBox="0 0 188 30" fill="none" xmlns="http://www.w3.org/2000/svg">
<g clip-path="url(#clip0)">
<path fill-rule="evenodd" clip-rule="evenodd" d="M0.5 18.1669C0.5 24.0585 3.77695 30 11.115 30C18.4466 30 21.7301 24.0585 21.7301 18.1669C21.7301 14.1422 20.3835 9.508 18.1361 5.76478C15.9504 2.15005 13.3244 0 11.115 0C8.89941 0 6.27217 2.15005 4.10555 5.76478C1.84748 9.508 0.5 14.1422 0.5 18.1669ZM75.8658 8.83901H68.4354V1.60705H91.2577V8.83901H83.8272V28.3926H75.8658V8.83901ZM108.241 8.83932H119.918V1.60705H108.242C97.5129 1.60705 91.785 6.99101 91.785 15C91.785 23.009 97.5129 28.393 108.242 28.393H119.918V21.1608H108.241C103.277 21.1608 100.011 19.3694 100.011 15C100.011 10.6306 103.277 8.83932 108.241 8.83932ZM47.9992 17.5951L52.2435 1.60705H66.3121V28.393H58.3506V6.59163L52.5634 28.393H43.4351L37.6516 6.60547L37.6513 28.393H29.6903V1.60705H43.7548L47.9992 17.5951ZM139.744 9.37101H136.937V11.9913H139.744C140.455 11.9913 140.879 11.6225 140.879 10.9431V10.458C140.879 9.75906 140.513 9.37101 139.744 9.37101ZM140.455 14.9998H133.187V1.60705H143.878V4.80977H136.937V6.55635H140.455C143.398 6.55635 144.821 8.03171 144.821 10.6325C144.821 13.369 143.398 14.9998 140.455 14.9998ZM153.473 9.5263H150.511L151.992 4.57701L153.473 9.5263ZM159.165 15L155.068 1.60705H149.493L145.397 15H148.896L149.647 12.438H154.339L155.107 15H159.165ZM168.645 15V9.81765H164.357V15H160.511V1.60705H164.357V6.5176H168.645V1.60705H172.492V15H168.645ZM179.315 6.5176H178.642V1.60705H174.796V15H178.642V9.81765H179.2L182.758 15H187.199L182.392 7.99298L186.815 1.60705H182.758L179.315 6.5176Z" fill="#E30611"/>
</g>
<defs>
<clipPath id="clip0">
<rect width="187" height="30" fill="white" transform="translate(0.5)"/>
</clipPath>
</defs>
</svg>
