<svg width="121" height="22" viewBox="0 0 121 22" fill="none" xmlns="http://www.w3.org/2000/svg">
<g clip-path="url(#clip0)">
<path d="M52.9591 0.0605469V22.0002H49.1422V12.4141H37.7856V22.002H33.9688V0.0605469H37.7856V8.97175H49.1422V0.0605469H52.9591Z" fill="black"/>
<path d="M68.293 8.69557C73.2555 8.69557 76.0547 11.1538 76.0547 15.3332C76.0547 19.5127 73.2555 22.002 68.293 22.002H58.082V0.0605469H74.1773V3.40957H61.8989V8.69557H68.293ZM67.6252 18.7426C71.0282 18.7426 72.2058 17.4513 72.2058 15.24C72.2058 13.0579 70.9661 11.7684 67.6252 11.7684H61.8989V18.7445H67.6252V18.7426Z" fill="black"/>
<path d="M79.8164 0.0605469H83.6333V9.03394H89.7734L94.132 0.0605469H98.0768L92.9864 10.724L98.3628 22.002H94.418L89.7734 12.383H83.6333V22.0002H79.8164V0.0605469Z" fill="black"/>
<path d="M105.447 0.0605469V17.1459H106.211L115.594 0.0605469H121.003V22.0002H117.376V4.91489H116.612L107.229 22.0002H101.82V0.0605469H105.447Z" fill="black"/>
<path d="M4.14021 16.7844C4.9698 16.7844 5.64513 17.4319 5.64513 18.2293C5.64513 19.0268 4.9698 19.6743 4.14021 19.6743C3.31061 19.6743 2.63528 19.0268 2.63528 18.2293C2.63528 17.4337 3.31061 16.7844 4.14021 16.7844ZM4.14021 16.0527C2.893 16.0527 1.88281 17.0276 1.88281 18.2293C1.88281 19.431 2.893 20.4059 4.14021 20.4059C5.38741 20.4059 6.3976 19.431 6.3976 18.2293C6.3976 17.0276 5.38741 16.0527 4.14021 16.0527Z" fill="#4563FF"/>
<path d="M7.71484 21.9488H15.2395V0H7.71484V21.9488ZM11.4772 20.4855C10.23 20.4855 9.21977 19.5033 9.21977 18.2907C9.21977 17.078 10.23 16.0958 11.4772 16.0958C12.7244 16.0958 13.7346 17.078 13.7346 18.2907C13.7346 19.5033 12.7244 20.4855 11.4772 20.4855Z" fill="#4563FF"/>
<path d="M20.8818 0H15.2383V21.9488H20.8818C21.9202 21.9488 22.7629 21.1294 22.7629 20.1197V1.82907C22.7629 0.819421 21.9202 0 20.8818 0ZM19.0006 20.4855C17.7534 20.4855 16.7432 19.5033 16.7432 18.2907C16.7432 17.078 17.7534 16.0958 19.0006 16.0958C20.2478 16.0958 21.258 17.078 21.258 18.2907C21.258 19.5033 20.2478 20.4855 19.0006 20.4855Z" fill="#FF0029"/>
<path d="M8.08899 0.731626V21.2172H1.88116C1.2585 21.2172 0.752464 20.7251 0.752464 20.1197V1.82907C0.752464 1.22364 1.2585 0.731626 1.88116 0.731626H8.08899ZM8.84145 0H1.88116C0.84276 0 0 0.819421 0 1.82907V20.1197C0 21.1294 0.84276 21.9488 1.88116 21.9488H8.84145V0Z" fill="#4563FF"/>
</g>
<defs>
<clipPath id="clip0">
<rect width="121" height="22" fill="white"/>
</clipPath>
</defs>
</svg>
