<svg width="28" height="29" viewBox="0 0 28 29" fill="none" xmlns="http://www.w3.org/2000/svg">
<path fill-rule="evenodd" clip-rule="evenodd" d="M2.33333 1.11176C1.47422 1.11176 0.777778 1.80821 0.777778 2.66732V26.0007C0.777778 26.8598 1.47422 27.5562 2.33333 27.5562H20.2222C21.0813 27.5562 21.7778 26.8598 21.7778 26.0007V8.45512L15.1876 1.11176H2.33333ZM0 2.66732C0 1.37865 1.04467 0.333984 2.33333 0.333984H15.3611C15.4715 0.333984 15.5768 0.380939 15.6505 0.463131L22.4561 8.04646C22.5201 8.11782 22.5556 8.21032 22.5556 8.30621V26.0007C22.5556 27.2893 21.5109 28.334 20.2222 28.334H2.33333C1.04467 28.334 0 27.2893 0 26.0007V2.66732Z" fill="#7B7794"/>
<path d="M3.80859 12.6699V18.2233H4.74193V16.1155H6.25082C7.49526 16.1155 8.19526 15.4699 8.19526 14.381C8.19526 13.3155 7.49526 12.6699 6.25082 12.6699H3.80859ZM4.74193 15.291V13.4944H6.11082C6.94304 13.4944 7.24637 13.821 7.24637 14.3888C7.24637 14.9488 6.94304 15.291 6.11082 15.291H4.74193Z" fill="#7B7794"/>
<path d="M9.26215 12.6699V18.2233H11.4633C13.1666 18.2233 14.0299 17.111 14.0299 15.4466C14.0299 13.7744 13.1666 12.6699 11.4633 12.6699H9.26215ZM10.1955 17.3755V13.5177H11.3855C12.6299 13.5177 13.081 14.381 13.081 15.4466C13.081 16.5044 12.6299 17.3755 11.3855 17.3755H10.1955Z" fill="#7B7794"/>
<path d="M19.1007 13.5177V12.6699H15.1107V18.2233H16.044V15.8744H18.4862V15.0421H16.044V13.5177H19.1007Z" fill="#7B7794"/>
<path fill-rule="evenodd" clip-rule="evenodd" d="M14.7773 6.55577V1.11133H15.5551V6.55577C15.5551 7.41488 16.2516 8.11133 17.1107 8.11133H21.7773V8.88911H17.1107C15.822 8.88911 14.7773 7.84444 14.7773 6.55577Z" fill="#7B7794"/>
</svg>
