<svg width="72" height="72" viewBox="0 0 72 72" fill="none" xmlns="http://www.w3.org/2000/svg">
<path fill-rule="evenodd" clip-rule="evenodd" d="M6 2C3.79086 2 2 3.79086 2 6V66C2 68.2091 3.79086 70 6 70H52C54.2091 70 56 68.2091 56 66V20.8829L39.0538 2H6ZM0 6C0 2.68629 2.68629 0 6 0H39.5C39.784 0 40.0546 0.12074 40.2442 0.33209L57.7442 19.8321C57.9089 20.0156 58 20.2534 58 20.5V66C58 69.3137 55.3137 72 52 72H6C2.68629 72 0 69.3137 0 66V6Z" fill="#7B7794"/>
<path d="M9.79297 31.7207V46.0007H12.193V40.5807H16.073C19.273 40.5807 21.073 38.9207 21.073 36.1207C21.073 33.3807 19.273 31.7207 16.073 31.7207H9.79297ZM12.193 38.4607V33.8407H15.713C17.853 33.8407 18.633 34.6807 18.633 36.1407C18.633 37.5807 17.853 38.4607 15.713 38.4607H12.193Z" fill="#7B7794"/>
<path d="M23.8164 31.7207V46.0007H29.4764C33.8564 46.0007 36.0764 43.1407 36.0764 38.8607C36.0764 34.5607 33.8564 31.7207 29.4764 31.7207H23.8164ZM26.2164 43.8207V33.9007H29.2764C32.4764 33.9007 33.6364 36.1207 33.6364 38.8607C33.6364 41.5807 32.4764 43.8207 29.2764 43.8207H26.2164Z" fill="#7B7794"/>
<path d="M49.1155 33.9007V31.7207H38.8555V46.0007H41.2555V39.9607H47.5355V37.8207H41.2555V33.9007H49.1155Z" fill="#7B7794"/>
<path fill-rule="evenodd" clip-rule="evenodd" d="M38 16V2H40V16C40 18.2091 41.7909 20 44 20H56V22H44C40.6863 22 38 19.3137 38 16Z" fill="#7B7794"/>
</svg>
