<svg width="22" height="20" viewBox="0 0 22 20" fill="none" xmlns="http://www.w3.org/2000/svg">
<path fill-rule="evenodd" clip-rule="evenodd" d="M6.84475 2.77475C9.43675 2.40775 12.5628 2.40775 15.1548 2.77475C17.5098 3.10875 19.3348 4.76075 19.6828 6.54075C20.1058 8.69575 20.1058 11.3038 19.6828 13.4587C19.3337 15.2387 17.5098 16.8908 15.1548 17.2248C12.5628 17.5918 9.43575 17.5918 6.84475 17.2248C4.48975 16.8908 2.66575 15.2387 2.31675 13.4587C1.89375 11.3038 1.89375 8.69575 2.31675 6.54075C2.66575 4.76075 4.48975 3.10875 6.84475 2.77475ZM15.4347 0.79475C12.6577 0.40175 9.34175 0.40175 6.56475 0.79475C3.54975 1.22175 0.89975 3.37275 0.35475 6.15675C-0.11825 8.56575 -0.11825 11.4338 0.35475 13.8428C0.89975 16.6268 3.54975 18.7778 6.56475 19.2048C9.34175 19.5977 12.6577 19.5977 15.4347 19.2048C18.4497 18.7778 21.0998 16.6268 21.6448 13.8428C22.1178 11.4338 22.1178 8.56575 21.6448 6.15675C21.0998 3.37275 18.4497 1.22175 15.4347 0.79475ZM9.55475 5.16775C9.40415 5.06727 9.2291 5.00956 9.04827 5.00078C8.86744 4.99199 8.68761 5.03247 8.52798 5.11788C8.36835 5.20329 8.23491 5.33043 8.14188 5.48574C8.04884 5.64105 7.99972 5.81871 7.99975 5.99975V13.9998C7.99972 14.1808 8.04884 14.3584 8.14188 14.5138C8.23491 14.6691 8.36835 14.7962 8.52798 14.8816C8.68761 14.967 8.86744 15.0075 9.04827 14.9987C9.2291 14.9899 9.40415 14.9322 9.55475 14.8318L15.5548 10.8317C15.6917 10.7404 15.804 10.6167 15.8817 10.4716C15.9593 10.3264 16 10.1644 16 9.99975C16 9.83514 15.9593 9.67307 15.8817 9.52793C15.804 9.38279 15.6917 9.25907 15.5548 9.16775L9.55475 5.16775ZM13.1967 9.99975L9.99975 12.1318V7.86875L13.1967 9.99975Z" fill="white" fill-opacity="0.5"/>
</svg>
