<svg width="23" height="22" viewBox="0 0 23 22" fill="none" xmlns="http://www.w3.org/2000/svg">
<path d="M21.3024 21.7165C21.6981 22.1018 22.3312 22.0933 22.7165 21.6976C23.1018 21.3019 23.0933 20.6688 22.6976 20.2835L21.3024 21.7165ZM16.5791 9.07068C16.5791 12.9507 13.3408 16.1414 9.28954 16.1414V18.1414C14.3946 18.1414 18.5791 14.1053 18.5791 9.07068H16.5791ZM9.28954 16.1414C5.23825 16.1414 2 12.9507 2 9.07068H0C0 14.1053 4.18446 18.1414 9.28954 18.1414V16.1414ZM2 9.07068C2 5.19071 5.23825 2 9.28954 2V0C4.18446 0 0 4.03603 0 9.07068H2ZM9.28954 2C13.3408 2 16.5791 5.19071 16.5791 9.07068H18.5791C18.5791 4.03603 14.3946 0 9.28954 0V2ZM14.576 15.1676L21.3024 21.7165L22.6976 20.2835L15.9711 13.7346L14.576 15.1676Z" fill="black"/>
</svg>
