<svg width="26" height="26" viewBox="0 0 26 26" fill="none" xmlns="http://www.w3.org/2000/svg">
<path d="M23.5196 25.7148H7.24109C6.59035 25.7167 5.95562 25.5132 5.4272 25.1334C4.87115 24.7309 4.46264 24.157 4.26445 23.4998L1.00875 13.0641C0.897142 12.687 0.874604 12.2891 0.942915 11.9018C1.01123 11.5145 1.16852 11.1483 1.40241 10.8322C1.63631 10.516 1.94041 10.2584 2.29077 10.0798C2.64113 9.9011 3.02819 9.80622 3.42146 9.80259H11.5607L10.7061 6.08761C10.5535 5.43874 10.5513 4.76357 10.6996 4.11372C10.848 3.46387 11.143 2.85655 11.5621 2.33819C11.9811 1.81983 12.5132 1.40415 13.1175 1.12294C13.7219 0.841734 14.3825 0.70244 15.0489 0.715708C15.2154 0.715137 15.3785 0.762537 15.5187 0.852238C15.6589 0.941938 15.7704 1.07014 15.8396 1.2215L19.793 9.80259H23.5079C23.7874 9.79952 24.0647 9.85152 24.324 9.95563C24.5834 10.0597 24.8196 10.2139 25.0194 10.4093C25.2191 10.6048 25.3784 10.8376 25.4882 11.0946C25.5979 11.3516 25.656 11.6277 25.659 11.9072V23.6102C25.6529 24.1726 25.4244 24.7096 25.0235 25.1039C24.6226 25.4983 24.0819 25.7179 23.5196 25.7148ZM14.5199 2.50634C14.1644 2.56252 13.8245 2.69209 13.5218 2.88682C13.2191 3.08154 12.9602 3.33716 12.7617 3.63739C12.5632 3.93762 12.4294 4.27589 12.3687 4.63067C12.3081 4.98545 12.322 5.34897 12.4095 5.69809L13.5141 10.477C13.5417 10.6051 13.5405 10.7378 13.5105 10.8654C13.4805 10.9929 13.4225 11.1123 13.3407 11.2147C13.2589 11.3171 13.1553 11.4 13.0375 11.4574C12.9197 11.5148 12.7906 11.5453 12.6595 11.5467H3.42146C3.29986 11.5469 3.17998 11.5755 3.07144 11.6304C2.96289 11.6852 2.86868 11.7646 2.79635 11.8624C2.72403 11.9602 2.67559 12.0735 2.65491 12.1933C2.63424 12.3131 2.64191 12.4362 2.6773 12.5525L3.2296 14.3431H7.78758C8.01887 14.3431 8.24068 14.435 8.40422 14.5985C8.56776 14.7621 8.65964 14.9839 8.65964 15.2152C8.65964 15.4465 8.56776 15.6683 8.40422 15.8318C8.24068 15.9954 8.01887 16.0873 7.78758 16.0873H3.76447L4.85164 19.6104H7.78758C8.01887 19.6104 8.24068 19.7023 8.40422 19.8658C8.56776 20.0293 8.65964 20.2512 8.65964 20.4824C8.65964 20.7137 8.56776 20.9355 8.40422 21.0991C8.24068 21.2626 8.01887 21.3545 7.78758 21.3545H5.3865L5.88649 22.9765C5.97623 23.2615 6.15401 23.5107 6.39426 23.6883C6.63452 23.8658 6.92489 23.9627 7.22365 23.9649H18.4093V10.9363L14.5199 2.50634ZM23.9265 11.9072C23.9236 11.8567 23.9107 11.8074 23.8886 11.762C23.8665 11.7166 23.8357 11.6759 23.7979 11.6424C23.7601 11.6089 23.716 11.5833 23.6683 11.5668C23.6205 11.5504 23.57 11.5436 23.5196 11.5467H20.1534V23.9707H23.5196C23.57 23.9738 23.6205 23.967 23.6683 23.9506C23.716 23.9341 23.7601 23.9085 23.7979 23.875C23.8357 23.8415 23.8665 23.8009 23.8886 23.7554C23.9107 23.71 23.9236 23.6607 23.9265 23.6102V11.9072Z" fill="#AEB5D1"/>
</svg>
