<svg width="503" height="329" viewBox="0 0 503 329" fill="none" xmlns="http://www.w3.org/2000/svg">
<path d="M482.264 0.5625H154.159C143.287 0.5625 134.745 9.07031 134.745 19.8984V25.6992H445.764C462.849 25.6992 476.828 39.6211 476.828 56.6367V220.219H482.652C493.524 220.219 502.066 211.711 502.066 200.883V19.8984C501.678 9.07031 492.747 0.5625 482.264 0.5625Z" fill="#4563FF"/>
<path d="M445.377 260.438H117.273C104.459 260.438 93.9753 249.996 93.9753 237.234V56.25C93.9753 43.4883 104.459 33.0469 117.273 33.0469H445.377C458.191 33.0469 468.674 43.4883 468.674 56.25V236.848C468.674 249.996 458.191 260.438 445.377 260.438ZM117.273 40.7812C108.73 40.7812 101.741 47.7422 101.741 56.25V236.848C101.741 245.355 108.73 252.316 117.273 252.316H445.377C453.919 252.316 460.909 245.355 460.909 236.848V56.25C460.909 47.7422 453.919 40.7812 445.377 40.7812H117.273Z" fill="#4563FF"/>
<path d="M326.948 81.7734C337.82 81.7734 346.363 90.2812 346.363 101.109C346.363 111.938 337.82 120.445 326.948 120.445C316.076 120.445 307.534 111.938 307.534 101.109C307.534 90.2812 316.464 81.7734 326.948 81.7734ZM326.948 74.0391C311.805 74.0391 299.768 86.0273 299.768 101.109C299.768 116.191 311.805 128.18 326.948 128.18C342.091 128.18 354.128 116.191 354.128 101.109C354.128 86.0273 342.091 74.0391 326.948 74.0391Z" fill="#4563FF"/>
<path d="M113.389 328.887C91.645 328.887 71.0657 320.379 55.9225 304.91C54.3693 303.363 54.3693 301.043 55.9225 299.496C57.4756 297.949 59.8052 297.949 61.3584 299.496C75.3368 313.418 93.9747 321.152 113.389 321.152C154.16 321.152 187.164 288.281 187.164 247.676C187.164 207.07 154.16 174.199 113.389 174.199C72.6189 174.199 39.6143 207.07 39.6143 247.676V259.277C39.6143 261.598 38.0611 263.145 35.7314 263.145C33.4016 263.145 31.8485 261.598 31.8485 259.277V247.676C31.8485 202.816 68.3477 166.465 113.389 166.465C158.431 166.465 194.93 202.816 194.93 247.676C194.93 292.535 158.042 328.887 113.389 328.887Z" fill="#4563FF"/>
<path d="M35.7312 268.559L1.95002 234.914C0.396867 233.367 0.396867 231.047 1.95002 229.5C3.50318 227.953 5.83289 227.953 7.38605 229.5L35.7312 257.73L64.0763 229.5C65.6294 227.953 67.9593 227.953 69.5124 229.5C71.0656 231.047 71.0656 233.367 69.5124 234.914L35.7312 268.559Z" fill="#4563FF"/>
</svg>
