<svg width="24" height="24" viewBox="0 0 24 24" fill="none" xmlns="http://www.w3.org/2000/svg">
<path fill-rule="evenodd" clip-rule="evenodd" d="M7.84475 4.77475C10.4368 4.40775 13.5628 4.40775 16.1548 4.77475C18.5098 5.10875 20.3348 6.76075 20.6828 8.54075C21.1058 10.6958 21.1058 13.3038 20.6828 15.4587C20.3337 17.2387 18.5098 18.8908 16.1548 19.2248C13.5628 19.5918 10.4358 19.5918 7.84475 19.2248C5.48975 18.8908 3.66575 17.2387 3.31675 15.4587C2.89375 13.3038 2.89375 10.6958 3.31675 8.54075C3.66575 6.76075 5.48975 5.10875 7.84475 4.77475ZM16.4347 2.79475C13.6577 2.40175 10.3418 2.40175 7.56475 2.79475C4.54975 3.22175 1.89975 5.37275 1.35475 8.15675C0.88175 10.5658 0.88175 13.4338 1.35475 15.8428C1.89975 18.6268 4.54975 20.7778 7.56475 21.2048C10.3418 21.5977 13.6577 21.5977 16.4347 21.2048C19.4497 20.7778 22.0998 18.6268 22.6448 15.8428C23.1178 13.4338 23.1178 10.5658 22.6448 8.15675C22.0998 5.37275 19.4497 3.22175 16.4347 2.79475ZM10.5548 7.16775C10.4042 7.06727 10.2291 7.00956 10.0483 7.00078C9.86744 6.99199 9.68761 7.03247 9.52798 7.11788C9.36835 7.20329 9.23491 7.33043 9.14188 7.48574C9.04884 7.64105 8.99972 7.81871 8.99975 7.99975V15.9998C8.99972 16.1808 9.04884 16.3584 9.14188 16.5138C9.23491 16.6691 9.36835 16.7962 9.52798 16.8816C9.68761 16.967 9.86744 17.0075 10.0483 16.9987C10.2291 16.9899 10.4042 16.9322 10.5548 16.8318L16.5548 12.8317C16.6917 12.7404 16.804 12.6167 16.8817 12.4716C16.9593 12.3264 17 12.1644 17 11.9998C17 11.8351 16.9593 11.6731 16.8817 11.5279C16.804 11.3828 16.6917 11.2591 16.5548 11.1678L10.5548 7.16775ZM14.1967 11.9998L10.9998 14.1318V9.86875L14.1967 11.9998Z" fill="white" fill-opacity="0.5"/>
</svg>
